<?xml version="1.0" encoding="UTF-8"?>
<svg id="Layer_1" data-name="Layer 1" xmlns="http://www.w3.org/2000/svg" version="1.1" viewBox="0 0 720 503.121">
  <defs>
    <style>
      .cls-1 {
        fill: #0c7565;
      }

      .cls-1, .cls-2, .cls-3 {
        stroke-width: 0px;
      }

      .cls-2 {
        fill: #939598;
      }

      .cls-3 {
        fill: #8d8e8d;
      }
    </style>
  </defs>
  <g id="Logo">
    <polygon class="cls-1" points="365.201 81.905 460.82 107.526 460.82 25.621 365.201 0 365.201 81.905"/>
    <polygon class="cls-1" points="365.201 216.731 460.82 216.731 460.82 117.923 365.201 92.302 365.201 216.731"/>
    <polygon class="cls-1" points="259.18 107.526 354.799 81.905 354.799 0 259.18 25.621 259.18 107.526"/>
    <polygon class="cls-1" points="259.18 216.731 354.799 216.731 354.799 92.302 259.18 117.923 259.18 216.731"/>
    <g>
      <polygon class="cls-2" points="556.439 133.147 556.439 133.101 566.788 135.874 566.788 135.668 566.788 79.384 471.169 53.763 471.169 110.299 556.439 133.147"/>
      <polygon class="cls-2" points="556.439 143.498 556.439 143.544 471.169 120.696 471.169 135.668 471.169 216.731 566.788 185.747 566.788 161.289 566.788 146.271 556.439 143.498"/>
    </g>
    <g>
      <polygon class="cls-2" points="163.614 133.124 163.614 133.17 248.831 110.336 248.831 53.763 153.212 79.384 153.212 135.668 153.212 135.911 163.614 133.124"/>
      <polygon class="cls-2" points="163.614 143.566 163.614 143.521 153.212 146.308 153.212 161.289 153.212 185.747 248.831 216.731 248.831 135.668 248.831 120.733 163.614 143.566"/>
    </g>
  </g>
  <g id="Dilamco">
    <path class="cls-1" d="M302.482,267.33c2.442-.551,4.66-1.052,7.316-1.651,4.501,12.465,8.855,24.623,13.281,36.755,6.772,18.56,13.553,37.116,20.437,55.635,1.151,3.096,2.585,6.151,4.34,8.941,2.414,3.84,5.81,6.639,10.733,5.632,5.112-1.045,8.086-4.517,8.783-9.639,1.098-8.06,2.248-16.128,2.884-24.232,1.273-16.236,2.195-32.499,3.296-48.749.993-14.657-2.996-15.744-12.512-17.003-.646-.085-1.268-.353-2.193-.621-.074-1.223-.15-2.48-.245-4.042h32.647c11.444,25.571,23.008,51.409,35.166,78.575,12.33-27.036,24.064-52.766,35.855-78.621h32.233v4.169c-1.61.36-3.188.809-4.796,1.057-7.549,1.168-9.884,3.445-9.73,11.187.514,25.769,1.198,51.535,2.006,77.296.234,7.455,2.571,9.668,10.142,11.129,1.305.252,2.593.593,4.377,1.006.06,1.244.125,2.592.205,4.231h-47.989c-.066-1.429-.124-2.662-.175-3.758.521-.343.766-.606,1.06-.684,12.561-3.317,12.752-3.538,12.731-16.501-.035-21.631-.089-43.261-.155-64.892-.005-1.588-.164-3.175-.252-4.762-.467-.122-.933-.244-1.4-.365-12.936,29.837-25.873,59.674-38.908,89.739h-4.301c-11.973-29.353-23.856-58.485-35.739-87.618l-1.222.195c-.388,5.153-.884,10.3-1.144,15.459-.718,14.28-1.428,28.562-1.944,42.85-.167,4.637.061,9.317.489,13.942.735,7.94,2.781,9.873,10.737,10.998,1.301.184,2.584.5,4.296.838.07,1.474.136,2.847.216,4.528h-77.325v-3.955c.473-.321.718-.581,1.014-.674,9.86-3.078,10.066-3.38,6.684-13.21-2.051-5.962-4.322-11.848-6.518-17.759-.226-.608-.612-1.156-1.036-1.939h-34.401c-2.589,8.354-5.509,16.939-7.708,25.704-.36,1.436,2.102,4.204,3.898,5.39,1.966,1.297,4.672,1.472,7.324,2.21.071,1.306.14,2.569.229,4.189H123.112v-3.833c.464-.252.73-.482,1.033-.549,12.621-2.811,13.565-3.917,13.589-16.885.041-22.463.013-44.927.007-67.391,0-1.164-.038-2.329-.091-3.492-.428-9.381-1.883-11.048-11.067-12.804-1.122-.214-2.211-.594-3.477-.942v-4.074h95.145v4.052c-1.368.398-2.453.813-3.577,1.025-8.931,1.681-10.463,3.419-10.477,12.573-.038,24.793-.034,49.586-.002,74.379.011,8.671,2.121,10.912,10.642,11.644.166.014.332.029.497.044,20.629,1.795,25.687-1.187,33.818-19.933.261-.601.572-1.18,1.093-2.248,1.485.315,3.003.636,5.122,1.085-1.466,7.359-2.867,14.39-4.348,21.822,6.746-.141,10.339-3.813,12.519-8.883,4.523-10.519,8.784-21.152,13.051-31.779,8.596-21.407,17.125-42.841,25.893-64.793ZM157.249,323.038c0,13.3-.228,26.608.178,39.896.089,2.919,1.657,7.041,3.889,8.403,5.834,3.559,12.609,3.076,18.647.147,5.179-2.513,4.687-7.987,4.698-12.785.055-23.786.045-47.572-.008-71.358-.005-2.303-.43-4.611-.729-6.907-.505-3.873-3.136-5.928-6.621-6.483-3.379-.538-6.93-.743-10.316-.342-7.757.918-9.642,3.122-9.714,11.025-.116,12.8-.031,25.602-.023,38.404ZM300.129,294.172c-.529-.037-1.059-.074-1.588-.11-4.653,12.711-9.306,25.423-14.082,38.472h29.031c-4.593-13.188-8.976-25.775-13.36-38.362Z"/>
    <path class="cls-1" d="M12.197,272.405v-4.335c9.694,0,19.151-.226,28.594.052,14.588.43,29.309.141,43.711,2.093,19.307,2.618,33.354,13.552,38.707,32.763,5.572,19.996,2.647,38.904-11.613,54.99-10.199,11.505-23.621,17.777-38.429,19.055-20.464,1.766-41.096,1.59-61.945,2.255-.3-2.206-.464-3.407-.663-4.873,1.898-.468,3.464-.94,5.062-1.235,7.872-1.453,10.125-3.584,10.175-11.479.163-25.605.16-51.213.003-76.818-.049-8.046-1.368-8.988-13.601-12.469ZM45.466,320.328c0,12.638-.09,25.276.032,37.913.079,8.141,3.622,12.609,10.351,13.636,17.522,2.676,33.902-5.71,41.687-21.654,6.098-12.489,7.409-25.752,5.217-39.361-4.399-27.299-25.556-39.612-49.298-36.537-6.809.882-7.957,2.545-7.983,9.586-.045,12.139-.013,24.278-.007,36.417Z"/>
    <path class="cls-1" d="M655.169,265.592c30.555.917,55.341,24.09,54.237,58.546-1.128,35.188-26.78,58.899-60.705,57.28-33.164-1.583-55.873-27.1-54.447-61.181,1.35-32.277,27.861-56.059,60.916-54.645ZM616.666,320.346c.589,14.58,3.029,28.724,12.064,40.819,15.628,20.922,42.958,17.831,52.768-6.273,2.883-7.083,4.434-15.019,4.979-22.679,1.186-16.665-.851-32.979-11.125-46.967-14.143-19.255-39.086-17.707-51.024,2.93-5.751,9.94-7.246,20.882-7.662,32.17Z"/>
    <path class="cls-1" d="M590.507,270.371c1.231,8.982,2.375,17.331,3.567,26.028-2.018.538-3.523.939-5.171,1.378-.465-1.168-.806-1.907-1.057-2.675-4.308-13.215-12.859-21.565-27.056-23.043-13.878-1.445-25.678,2.901-34.409,13.979-9.55,12.118-12.279,26.315-11.115,41.344.831,10.728,3.542,21.011,9.948,29.888,9.217,12.772,21.612,18.811,37.491,16.698,10.541-1.403,17.662-7.897,23.354-16.296,1.947-2.872,3.664-5.9,5.734-9.259,1.617.608,3.231,1.215,5.389,2.026-3.202,9.076-6.271,17.773-9.262,26.25-20.361,4.84-39.924,7.309-59.537.051-23.66-8.756-37.69-31.774-35.655-56.88,2.506-30.923,25.695-50.023,54.871-53.79,13.238-1.709,26.16-.19,38.986,2.987,1.251.31,2.454.816,3.92,1.313Z"/>
  </g>
  <g>
    <path class="cls-3" d="M173.269,482.061c0-.72.012-1.283.036-1.692.023-.407.036-.768.036-1.08,0-1.104-.265-1.901-.792-2.394-.528-.491-1.381-.738-2.557-.738h-6.191v10.404h-5.4v-26.244h14.076c1.344,0,2.502.229,3.474.685.973.456,1.704,1.056,2.196,1.8.491.744.846,1.494,1.062,2.25.216.756.323,1.542.323,2.357,0,3.168-1.476,5.328-4.428,6.48.648.265,1.128.474,1.44.63.312.156.63.414.953.774.324.359.54.684.648.972s.216.816.324,1.584c.107.769.174,1.524.198,2.268.023.744.048,1.849.071,3.312,0,1.008.384,1.728,1.152,2.16v.972h-5.796c-.337-.624-.559-1.224-.666-1.8-.108-.576-.162-1.477-.162-2.7ZM174.133,468.164c0-1.344-.312-2.237-.937-2.682-.624-.443-1.584-.666-2.88-.666h-6.516v6.84h6.516c1.271,0,2.226-.228,2.862-.684.636-.456.954-1.392.954-2.809Z"/>
    <path class="cls-3" d="M192.815,481.305v5.256h-5.4v-5.256h5.4Z"/>
    <path class="cls-3" d="M222.695,479.001c0,.863-.144,1.704-.432,2.52-.288.816-.75,1.62-1.386,2.412-.637.792-1.591,1.428-2.862,1.908-1.272.48-2.784.72-4.536.72h-11.808v-26.244h11.7c1.632,0,3.042.24,4.229.72,1.188.48,2.076,1.099,2.664,1.854s1.014,1.494,1.278,2.214c.264.72.396,1.429.396,2.124,0,1.128-.276,2.101-.828,2.916-.552.816-1.476,1.645-2.771,2.484,2.903,1.704,4.355,3.828,4.355,6.372ZM207.071,464.817v5.94h5.868c2.544,0,3.816-.984,3.816-2.952,0-1.992-1.272-2.988-3.816-2.988h-5.868ZM207.071,475.257v6.804h6.444c2.664,0,3.996-1.128,3.996-3.384,0-2.28-1.332-3.42-3.996-3.42h-6.444Z"/>
    <path class="cls-3" d="M236.015,481.305v5.256h-5.4v-5.256h5.4Z"/>
    <path class="cls-3" d="M256.103,459.885c3.816,0,6.876,1.296,9.181,3.888,2.304,2.592,3.456,5.856,3.456,9.792,0,1.776-.259,3.498-.774,5.166-.517,1.668-1.219,3.042-2.105,4.122l2.88,2.736-2.736,2.916-3.096-2.916c-1.992,1.199-4.261,1.8-6.805,1.8-3.792,0-6.846-1.29-9.161-3.87-2.316-2.58-3.475-5.874-3.475-9.882s1.158-7.302,3.475-9.882c2.315-2.58,5.369-3.87,9.161-3.87ZM259.199,476.553l2.952,2.808c.792-1.584,1.188-3.479,1.188-5.688,0-2.784-.654-5.01-1.962-6.679-1.309-1.667-3.066-2.502-5.274-2.502-2.184,0-3.936.835-5.256,2.502-1.32,1.669-1.979,3.883-1.979,6.643s.659,4.974,1.979,6.642c1.32,1.669,3.061,2.502,5.221,2.502,1.247,0,2.304-.228,3.168-.684l-2.772-2.628,2.736-2.916Z"/>
    <path class="cls-3" d="M281.23,481.305v5.256h-5.4v-5.256h5.4Z"/>
    <path class="cls-3" d="M318.778,467.408c0,1.345-.294,2.419-.882,3.223-.589.804-1.398,1.481-2.431,2.033,1.464.793,2.526,1.705,3.187,2.736.659,1.032.99,2.304.99,3.816,0,2.4-.841,4.362-2.521,5.886s-3.852,2.286-6.516,2.286c-2.688,0-4.873-.756-6.553-2.269-1.68-1.512-2.52-3.479-2.52-5.903,0-1.513.33-2.784.99-3.816.659-1.031,1.722-1.943,3.186-2.736-1.151-.623-1.992-1.344-2.52-2.159-.528-.816-.792-1.836-.792-3.061,0-2.016.773-3.678,2.321-4.985,1.549-1.309,3.511-1.963,5.887-1.963,2.352,0,4.302.654,5.85,1.963,1.548,1.308,2.322,2.958,2.322,4.949ZM310.57,474.681c-1.2,0-2.166.384-2.898,1.152-.732.768-1.098,1.8-1.098,3.096,0,1.272.36,2.28,1.08,3.023.72.744,1.691,1.116,2.916,1.116s2.201-.372,2.934-1.116c.732-.743,1.099-1.728,1.099-2.951,0-1.32-.36-2.37-1.08-3.15-.721-.779-1.705-1.17-2.952-1.17ZM313.378,465.501c-.696-.624-1.608-.937-2.735-.937s-2.047.306-2.754.918c-.709.612-1.062,1.41-1.062,2.395s.354,1.794,1.062,2.43c.707.636,1.625.954,2.754.954,1.104,0,2.01-.312,2.718-.937.707-.623,1.062-1.428,1.062-2.412s-.348-1.787-1.044-2.411Z"/>
    <path class="cls-3" d="M325.726,468.633c0-1.32.186-2.484.558-3.492s.84-1.8,1.404-2.376c.563-.576,1.229-1.038,1.998-1.386.768-.348,1.494-.582,2.178-.702.685-.12,1.398-.181,2.143-.181,2.471,0,4.439.631,5.903,1.891s2.196,2.946,2.196,5.058c0,1.177-.265,2.19-.792,3.042-.528.853-1.381,1.65-2.556,2.395,1.439.696,2.495,1.554,3.168,2.573.671,1.021,1.008,2.274,1.008,3.763,0,2.496-.811,4.481-2.43,5.958-1.62,1.476-3.787,2.214-6.498,2.214-2.616,0-4.698-.751-6.246-2.25-1.549-1.5-2.335-3.521-2.358-6.066h4.896c.144,2.664,1.415,3.996,3.815,3.996,1.104,0,2.01-.359,2.718-1.08.708-.72,1.062-1.644,1.062-2.771,0-.937-.252-1.746-.756-2.431-.504-.684-1.177-1.146-2.017-1.386-.672-.167-1.655-.252-2.952-.252v-3.384h.433c2.976,0,4.464-1.284,4.464-3.853,0-1.056-.276-1.877-.828-2.466-.553-.588-1.332-.882-2.34-.882-1.32,0-2.221.372-2.7,1.116-.48.744-.744,1.872-.792,3.384h-4.68v-.432Z"/>
    <path class="cls-3" d="M362.14,486.363c-1.188.685-2.634,1.026-4.338,1.026s-3.145-.342-4.32-1.026c-1.176-.684-2.082-1.661-2.718-2.934s-1.086-2.67-1.35-4.194c-.265-1.523-.396-3.281-.396-5.273,0-4.872.72-8.268,2.16-10.188,1.584-2.184,3.792-3.276,6.624-3.276,3.096,0,5.424,1.261,6.983,3.78,1.2,1.944,1.801,5.22,1.801,9.828,0,1.921-.133,3.631-.396,5.13-.265,1.5-.708,2.893-1.332,4.176-.624,1.284-1.53,2.269-2.718,2.952ZM361.546,473.996c0-2.567-.162-4.56-.486-5.976s-.738-2.346-1.242-2.79c-.504-.443-1.176-.666-2.016-.666-1.345,0-2.304.679-2.88,2.034-.576,1.356-.864,3.798-.864,7.326,0,2.447.156,4.362.468,5.742s.726,2.292,1.242,2.735c.516.444,1.193.666,2.034.666,1.464,0,2.496-.779,3.096-2.34.433-1.2.648-3.443.648-6.732Z"/>
    <path class="cls-3" d="M372.741,474.429c0-9.288,3.144-13.933,9.432-13.933.456,0,.9.024,1.332.072.432.049,1.014.192,1.746.433.731.24,1.38.563,1.944.972.563.408,1.104,1.032,1.619,1.872.517.84.858,1.836,1.026,2.988h-4.68c-.337-.816-.738-1.398-1.206-1.746s-1.11-.522-1.926-.522c-1.009,0-1.854.324-2.538.972-.685.648-1.146,1.549-1.387,2.7-.144.721-.252,1.98-.323,3.78.792-.815,1.571-1.397,2.34-1.746.768-.348,1.68-.521,2.735-.521,2.184,0,3.966.768,5.347,2.304,1.38,1.536,2.069,3.527,2.069,5.976,0,2.784-.786,5.04-2.357,6.769-1.572,1.728-3.631,2.592-6.174,2.592-1.513,0-2.898-.337-4.158-1.008-1.26-.672-2.263-1.596-3.006-2.772-1.225-1.944-1.836-5.004-1.836-9.18ZM384.44,474.969c-.696-.84-1.632-1.26-2.808-1.26s-2.124.438-2.844,1.313-1.08,2.022-1.08,3.438c0,1.344.36,2.447,1.08,3.312s1.656,1.296,2.808,1.296c1.128,0,2.058-.443,2.79-1.332.732-.888,1.099-2.016,1.099-3.384,0-1.416-.349-2.544-1.045-3.384Z"/>
    <path class="cls-3" d="M405.932,474.249v4.859h-9.792v-4.859h9.792Z"/>
    <path class="cls-3" d="M424.958,486.363c-1.188.685-2.634,1.026-4.338,1.026s-3.145-.342-4.32-1.026c-1.176-.684-2.082-1.661-2.718-2.934s-1.086-2.67-1.35-4.194c-.265-1.523-.396-3.281-.396-5.273,0-4.872.72-8.268,2.16-10.188,1.584-2.184,3.792-3.276,6.624-3.276,3.096,0,5.424,1.261,6.983,3.78,1.2,1.944,1.801,5.22,1.801,9.828,0,1.921-.133,3.631-.396,5.13-.265,1.5-.708,2.893-1.332,4.176-.624,1.284-1.53,2.269-2.718,2.952ZM424.364,473.996c0-2.567-.162-4.56-.486-5.976s-.738-2.346-1.242-2.79c-.504-.443-1.176-.666-2.016-.666-1.345,0-2.304.679-2.88,2.034-.576,1.356-.864,3.798-.864,7.326,0,2.447.156,4.362.468,5.742s.726,2.292,1.242,2.735c.516.444,1.193.666,2.034.666,1.464,0,2.496-.779,3.096-2.34.433-1.2.648-3.443.648-6.732Z"/>
    <path class="cls-3" d="M452.443,467.408c0,1.345-.294,2.419-.882,3.223-.589.804-1.398,1.481-2.431,2.033,1.464.793,2.526,1.705,3.187,2.736.659,1.032.99,2.304.99,3.816,0,2.4-.841,4.362-2.521,5.886s-3.852,2.286-6.516,2.286c-2.688,0-4.873-.756-6.553-2.269-1.68-1.512-2.52-3.479-2.52-5.903,0-1.513.33-2.784.99-3.816.659-1.031,1.722-1.943,3.186-2.736-1.151-.623-1.992-1.344-2.52-2.159-.528-.816-.792-1.836-.792-3.061,0-2.016.773-3.678,2.321-4.985,1.549-1.309,3.511-1.963,5.887-1.963,2.352,0,4.302.654,5.85,1.963,1.548,1.308,2.322,2.958,2.322,4.949ZM444.235,474.681c-1.2,0-2.166.384-2.898,1.152-.732.768-1.098,1.8-1.098,3.096,0,1.272.36,2.28,1.08,3.023.72.744,1.691,1.116,2.916,1.116s2.201-.372,2.934-1.116c.732-.743,1.099-1.728,1.099-2.951,0-1.32-.36-2.37-1.08-3.15-.721-.779-1.705-1.17-2.952-1.17ZM447.043,465.501c-.696-.624-1.608-.937-2.735-.937s-2.047.306-2.754.918c-.709.612-1.062,1.41-1.062,2.395s.354,1.794,1.062,2.43c.707.636,1.625.954,2.754.954,1.104,0,2.01-.312,2.718-.937.707-.623,1.062-1.428,1.062-2.412s-.348-1.787-1.044-2.411Z"/>
    <path class="cls-3" d="M472.189,486.363c-1.188.685-2.634,1.026-4.338,1.026s-3.145-.342-4.32-1.026c-1.176-.684-2.082-1.661-2.718-2.934s-1.086-2.67-1.35-4.194c-.265-1.523-.396-3.281-.396-5.273,0-4.872.72-8.268,2.16-10.188,1.584-2.184,3.792-3.276,6.624-3.276,3.096,0,5.424,1.261,6.983,3.78,1.2,1.944,1.801,5.22,1.801,9.828,0,1.921-.133,3.631-.396,5.13-.265,1.5-.708,2.893-1.332,4.176-.624,1.284-1.53,2.269-2.718,2.952ZM471.596,473.996c0-2.567-.162-4.56-.486-5.976s-.738-2.346-1.242-2.79c-.504-.443-1.176-.666-2.016-.666-1.345,0-2.304.679-2.88,2.034-.576,1.356-.864,3.798-.864,7.326,0,2.447.156,4.362.468,5.742s.726,2.292,1.242,2.735c.516.444,1.193.666,2.034.666,1.464,0,2.496-.779,3.096-2.34.433-1.2.648-3.443.648-6.732Z"/>
    <path class="cls-3" d="M482.791,474.429c0-9.288,3.144-13.933,9.432-13.933.456,0,.9.024,1.332.072.432.049,1.014.192,1.746.433.731.24,1.38.563,1.944.972.563.408,1.104,1.032,1.619,1.872.517.84.858,1.836,1.026,2.988h-4.68c-.337-.816-.738-1.398-1.206-1.746s-1.11-.522-1.926-.522c-1.009,0-1.854.324-2.538.972-.685.648-1.146,1.549-1.387,2.7-.144.721-.252,1.98-.323,3.78.792-.815,1.571-1.397,2.34-1.746.768-.348,1.68-.521,2.735-.521,2.184,0,3.966.768,5.347,2.304,1.38,1.536,2.069,3.527,2.069,5.976,0,2.784-.786,5.04-2.357,6.769-1.572,1.728-3.631,2.592-6.174,2.592-1.513,0-2.898-.337-4.158-1.008-1.26-.672-2.263-1.596-3.006-2.772-1.225-1.944-1.836-5.004-1.836-9.18ZM494.49,474.969c-.696-.84-1.632-1.26-2.808-1.26s-2.124.438-2.844,1.313-1.08,2.022-1.08,3.438c0,1.344.36,2.447,1.08,3.312s1.656,1.296,2.808,1.296c1.128,0,2.058-.443,2.79-1.332.732-.888,1.099-2.016,1.099-3.384,0-1.416-.349-2.544-1.045-3.384Z"/>
    <path class="cls-3" d="M515.981,474.249v4.859h-9.792v-4.859h9.792Z"/>
    <path class="cls-3" d="M539.382,468.597c0,1.416-.306,2.7-.918,3.852-.612,1.152-1.386,2.119-2.322,2.898-.936.78-1.896,1.5-2.88,2.16s-1.932,1.38-2.844,2.16c-.912.779-1.561,1.578-1.944,2.394h10.8v4.5h-17.352c.12-2.352.594-4.218,1.422-5.598s2.322-2.826,4.482-4.338c2.808-1.968,4.596-3.426,5.363-4.374.769-.948,1.152-2.13,1.152-3.547,0-1.271-.318-2.273-.954-3.006-.636-.731-1.519-1.098-2.646-1.098-1.152,0-2.047.396-2.683,1.188s-.954,1.896-.954,3.312v.828h-4.823c-.024-.264-.036-.563-.036-.9,0-2.688.737-4.781,2.214-6.282,1.476-1.499,3.533-2.25,6.174-2.25,2.688,0,4.817.732,6.39,2.196s2.358,3.433,2.358,5.904Z"/>
    <path class="cls-3" d="M563.465,461.036v3.96c-3.023,3.648-5.244,7.146-6.66,10.494-1.416,3.349-2.244,7.038-2.483,11.07h-5.076c.624-4.943,1.739-9.108,3.348-12.492.504-1.104,1.374-2.592,2.61-4.464,1.235-1.872,2.237-3.228,3.006-4.068h-12.708v-4.5h17.964Z"/>
  </g>
  <g>
    <path class="cls-1" d="M173.666,421.527c-.674-3.145-2.545-4.717-5.617-4.717-2.137,0-3.805.816-5.004,2.448-1.2,1.633-1.8,3.9-1.8,6.804,0,2.856.582,5.089,1.746,6.696,1.163,1.608,2.79,2.412,4.878,2.412,1.68,0,3.023-.456,4.031-1.368,1.01-.912,1.596-2.208,1.766-3.888h5.256c-.168,3-1.26,5.382-3.277,7.146-2.016,1.765-4.656,2.646-7.92,2.646-3.648,0-6.54-1.229-8.675-3.69-2.136-2.46-3.204-5.802-3.204-10.025,0-4.248,1.08-7.608,3.24-10.08,2.16-2.472,5.088-3.708,8.784-3.708,3.096,0,5.635.828,7.613,2.483,1.98,1.656,3.09,3.937,3.33,6.841h-5.146Z"/>
    <path class="cls-1" d="M196.31,435.854c-2.305-2.567-3.456-5.867-3.456-9.899s1.157-7.332,3.474-9.9c2.315-2.567,5.357-3.852,9.126-3.852,3.792,0,6.852,1.277,9.18,3.834,2.328,2.556,3.492,5.922,3.492,10.098,0,3.888-1.146,7.122-3.438,9.702-2.293,2.58-5.358,3.87-9.198,3.87-3.816,0-6.876-1.284-9.18-3.853ZM205.489,416.81c-2.185,0-3.937.835-5.256,2.502-1.32,1.669-1.98,3.883-1.98,6.643s.66,4.974,1.98,6.642c1.319,1.669,3.071,2.502,5.256,2.502,2.16,0,3.906-.828,5.238-2.483,1.332-1.656,1.997-3.828,1.997-6.517,0-2.831-.653-5.088-1.962-6.768-1.308-1.68-3.065-2.521-5.273-2.521Z"/>
    <path class="cls-1" d="M248.617,438.878l-10.549-18.144v18.144h-5.399v-26.244h5.544l10.404,17.856v-17.856h5.399v26.244h-5.399Z"/>
    <path class="cls-1" d="M288.863,420.626h-5.04c-.192-2.736-2.028-4.104-5.508-4.104-1.392,0-2.496.295-3.312.883-.816.588-1.225,1.374-1.225,2.357,0,.96.348,1.674,1.044,2.143.696.468,2.004.894,3.925,1.277l4.104.792c2.424.48,4.188,1.291,5.292,2.431,1.104,1.14,1.656,2.742,1.656,4.806,0,2.664-.948,4.746-2.844,6.246-1.896,1.499-4.536,2.25-7.92,2.25-3.36,0-5.971-.744-7.83-2.232-1.86-1.487-2.875-3.636-3.042-6.443h5.256c.096,1.416.647,2.496,1.656,3.239,1.008.744,2.424,1.116,4.247,1.116,1.632,0,2.922-.312,3.87-.936s1.422-1.488,1.422-2.592c0-1.057-.372-1.872-1.115-2.448-.744-.576-2.017-1.032-3.816-1.368l-3.672-.72c-2.664-.504-4.561-1.296-5.688-2.376s-1.691-2.641-1.691-4.681c0-2.567.869-4.554,2.61-5.958,1.739-1.403,4.182-2.105,7.325-2.105.912,0,1.794.06,2.646.18.852.12,1.758.366,2.718.738s1.788.852,2.484,1.439c.695.589,1.277,1.404,1.746,2.448.468,1.044.701,2.25.701,3.618Z"/>
    <path class="cls-1" d="M315.324,417.134v21.744h-5.4v-21.744h-7.956v-4.5h21.024v4.5h-7.668Z"/>
    <path class="cls-1" d="M353.089,434.378c0-.72.012-1.283.036-1.692.023-.407.036-.768.036-1.08,0-1.104-.265-1.901-.792-2.394-.528-.491-1.381-.738-2.557-.738h-6.191v10.404h-5.4v-26.244h14.076c1.344,0,2.502.229,3.474.685.973.456,1.704,1.056,2.196,1.8.491.744.846,1.494,1.062,2.25.216.756.323,1.542.323,2.357,0,3.168-1.476,5.328-4.428,6.48.648.265,1.128.474,1.44.63.312.156.63.414.953.774.324.359.54.684.648.972s.216.816.324,1.584c.107.769.174,1.524.198,2.268.023.744.048,1.849.071,3.312,0,1.008.384,1.728,1.152,2.16v.972h-5.796c-.337-.624-.559-1.224-.666-1.8-.108-.576-.162-1.477-.162-2.7ZM353.953,420.482c0-1.344-.312-2.237-.937-2.682-.624-.443-1.584-.666-2.88-.666h-6.516v6.84h6.516c1.271,0,2.226-.228,2.862-.684.636-.456.954-1.392.954-2.809Z"/>
    <path class="cls-1" d="M389.142,439.454c-.899.167-1.83.252-2.79.252s-1.89-.085-2.79-.252c-.899-.168-1.824-.468-2.771-.9-.948-.432-1.771-.983-2.466-1.656-.696-.671-1.267-1.565-1.71-2.682-.444-1.116-.666-2.382-.666-3.798v-17.784h5.399v17.784c0,3.12,1.668,4.68,5.004,4.68s5.004-1.56,5.004-4.68v-17.784h5.4v17.784c0,1.416-.222,2.682-.666,3.798s-1.014,2.011-1.71,2.682c-.696.673-1.519,1.225-2.466,1.656-.948.433-1.872.732-2.772.9Z"/>
    <path class="cls-1" d="M430.487,421.527c-.673-3.145-2.545-4.717-5.616-4.717-2.137,0-3.805.816-5.004,2.448-1.2,1.633-1.8,3.9-1.8,6.804,0,2.856.581,5.089,1.746,6.696,1.163,1.608,2.789,2.412,4.878,2.412,1.68,0,3.023-.456,4.031-1.368,1.009-.912,1.596-2.208,1.765-3.888h5.256c-.168,3-1.26,5.382-3.276,7.146-2.016,1.765-4.656,2.646-7.92,2.646-3.648,0-6.54-1.229-8.676-3.69-2.137-2.46-3.204-5.802-3.204-10.025,0-4.248,1.08-7.608,3.24-10.08s5.088-3.708,8.784-3.708c3.096,0,5.634.828,7.613,2.483,1.98,1.656,3.09,3.937,3.33,6.841h-5.147Z"/>
    <path class="cls-1" d="M461.375,417.134v21.744h-5.4v-21.744h-7.956v-4.5h21.024v4.5h-7.668Z"/>
    <path class="cls-1" d="M488.339,412.634v26.244h-5.4v-26.244h5.4Z"/>
    <path class="cls-1" d="M505.835,435.854c-2.305-2.567-3.456-5.867-3.456-9.899s1.157-7.332,3.474-9.9c2.315-2.567,5.357-3.852,9.126-3.852,3.792,0,6.852,1.277,9.18,3.834,2.328,2.556,3.492,5.922,3.492,10.098,0,3.888-1.146,7.122-3.438,9.702-2.293,2.58-5.358,3.87-9.198,3.87-3.816,0-6.876-1.284-9.18-3.853ZM515.015,416.81c-2.185,0-3.937.835-5.256,2.502-1.32,1.669-1.98,3.883-1.98,6.643s.66,4.974,1.98,6.642c1.319,1.669,3.071,2.502,5.256,2.502,2.16,0,3.906-.828,5.238-2.483,1.332-1.656,1.997-3.828,1.997-6.517,0-2.831-.653-5.088-1.962-6.768-1.308-1.68-3.065-2.521-5.273-2.521Z"/>
    <path class="cls-1" d="M558.143,438.878l-10.549-18.144v18.144h-5.399v-26.244h5.544l10.404,17.856v-17.856h5.399v26.244h-5.399Z"/>
  </g>
</svg>